<mxfile host="Electron" modified="2024-04-08T15:17:46.964Z" agent="Mozilla/5.0 (Windows NT 10.0; Win64; x64) AppleWebKit/537.36 (KHTML, like Gecko) draw.io/24.1.0 Chrome/120.0.6099.109 Electron/28.1.0 Safari/537.36" etag="8QWVFlVb3m9QTyMpOEAF" version="24.1.0" type="device" pages="3">
  <diagram id="sJuAcnCN0cZZrWt-lsAd" name="AS-IS">
    <mxGraphModel dx="2790" dy="1407" grid="0" gridSize="10" guides="1" tooltips="1" connect="1" arrows="1" fold="1" page="0" pageScale="1" pageWidth="850" pageHeight="1100" math="0" shadow="0">
      <root>
        <mxCell id="0" />
        <mxCell id="1" parent="0" />
        <mxCell id="4JJOVP_AdmXyafhe6PZB-1" value="Spółka celowa&lt;span style=&quot;white-space: pre;&quot;&gt;&#x9;&lt;/span&gt;" style="swimlane;html=1;childLayout=stackLayout;resizeParent=1;resizeParentMax=0;horizontal=0;startSize=20;horizontalStack=0;whiteSpace=wrap;" parent="1" vertex="1">
          <mxGeometry x="-127" y="218" width="1791" height="291" as="geometry" />
        </mxCell>
        <mxCell id="4JJOVP_AdmXyafhe6PZB-2" value="Księgowa" style="swimlane;html=1;startSize=20;horizontal=0;" parent="4JJOVP_AdmXyafhe6PZB-1" vertex="1">
          <mxGeometry x="20" width="1771" height="161" as="geometry" />
        </mxCell>
        <mxCell id="4JJOVP_AdmXyafhe6PZB-3" value="weryfikacja poprawności premii" style="points=[[0.25,0,0],[0.5,0,0],[0.75,0,0],[1,0.25,0],[1,0.5,0],[1,0.75,0],[0.75,1,0],[0.5,1,0],[0.25,1,0],[0,0.75,0],[0,0.5,0],[0,0.25,0]];shape=mxgraph.bpmn.task;whiteSpace=wrap;rectStyle=rounded;size=10;html=1;container=1;expand=0;collapsible=0;taskMarker=abstract;" parent="4JJOVP_AdmXyafhe6PZB-2" vertex="1">
          <mxGeometry x="365" y="70" width="120" height="80" as="geometry" />
        </mxCell>
        <mxCell id="4JJOVP_AdmXyafhe6PZB-4" style="edgeStyle=orthogonalEdgeStyle;rounded=0;orthogonalLoop=1;jettySize=auto;html=1;entryX=0;entryY=0.5;entryDx=0;entryDy=0;entryPerimeter=0;" parent="4JJOVP_AdmXyafhe6PZB-2" target="4JJOVP_AdmXyafhe6PZB-3" edge="1">
          <mxGeometry relative="1" as="geometry">
            <mxPoint x="295.99998269895605" y="80.47058823529414" as="sourcePoint" />
          </mxGeometry>
        </mxCell>
        <mxCell id="4JJOVP_AdmXyafhe6PZB-5" style="edgeStyle=orthogonalEdgeStyle;rounded=0;orthogonalLoop=1;jettySize=auto;html=1;exitX=1;exitY=0.5;exitDx=0;exitDy=0;exitPerimeter=0;" parent="4JJOVP_AdmXyafhe6PZB-2" source="4JJOVP_AdmXyafhe6PZB-7" target="4JJOVP_AdmXyafhe6PZB-10" edge="1">
          <mxGeometry relative="1" as="geometry" />
        </mxCell>
        <mxCell id="4JJOVP_AdmXyafhe6PZB-6" value="poprawna" style="edgeLabel;html=1;align=center;verticalAlign=middle;resizable=0;points=[];" parent="4JJOVP_AdmXyafhe6PZB-5" vertex="1" connectable="0">
          <mxGeometry x="-0.0909" y="-1" relative="1" as="geometry">
            <mxPoint as="offset" />
          </mxGeometry>
        </mxCell>
        <mxCell id="4JJOVP_AdmXyafhe6PZB-7" value="weryfikacja poprawności zwrotu kosztów" style="points=[[0.25,0,0],[0.5,0,0],[0.75,0,0],[1,0.25,0],[1,0.5,0],[1,0.75,0],[0.75,1,0],[0.5,1,0],[0.25,1,0],[0,0.75,0],[0,0.5,0],[0,0.25,0]];shape=mxgraph.bpmn.task;whiteSpace=wrap;rectStyle=rounded;size=10;html=1;container=1;expand=0;collapsible=0;taskMarker=abstract;" parent="4JJOVP_AdmXyafhe6PZB-2" vertex="1">
          <mxGeometry x="554" y="70" width="120" height="80" as="geometry" />
        </mxCell>
        <mxCell id="4JJOVP_AdmXyafhe6PZB-8" style="edgeStyle=orthogonalEdgeStyle;rounded=0;orthogonalLoop=1;jettySize=auto;html=1;exitX=1;exitY=0.5;exitDx=0;exitDy=0;exitPerimeter=0;entryX=0;entryY=0.5;entryDx=0;entryDy=0;entryPerimeter=0;" parent="4JJOVP_AdmXyafhe6PZB-2" source="4JJOVP_AdmXyafhe6PZB-3" target="4JJOVP_AdmXyafhe6PZB-7" edge="1">
          <mxGeometry relative="1" as="geometry" />
        </mxCell>
        <mxCell id="4JJOVP_AdmXyafhe6PZB-9" value="poprawna" style="edgeLabel;html=1;align=center;verticalAlign=middle;resizable=0;points=[];" parent="4JJOVP_AdmXyafhe6PZB-8" vertex="1" connectable="0">
          <mxGeometry x="-0.1884" y="-2" relative="1" as="geometry">
            <mxPoint as="offset" />
          </mxGeometry>
        </mxCell>
        <mxCell id="4JJOVP_AdmXyafhe6PZB-10" value="weryfikacja poprawności prowizji sprzedaży" style="points=[[0.25,0,0],[0.5,0,0],[0.75,0,0],[1,0.25,0],[1,0.5,0],[1,0.75,0],[0.75,1,0],[0.5,1,0],[0.25,1,0],[0,0.75,0],[0,0.5,0],[0,0.25,0]];shape=mxgraph.bpmn.task;whiteSpace=wrap;rectStyle=rounded;size=10;html=1;container=1;expand=0;collapsible=0;taskMarker=abstract;" parent="4JJOVP_AdmXyafhe6PZB-2" vertex="1">
          <mxGeometry x="773" y="70" width="120" height="80" as="geometry" />
        </mxCell>
        <mxCell id="4JJOVP_AdmXyafhe6PZB-11" value="&#xa;&lt;span style=&quot;color: rgb(0, 0, 0); font-family: Helvetica; font-size: 12px; font-style: normal; font-variant-ligatures: normal; font-variant-caps: normal; font-weight: 400; letter-spacing: normal; orphans: 2; text-align: center; text-indent: 0px; text-transform: none; widows: 2; word-spacing: 0px; -webkit-text-stroke-width: 0px; white-space: nowrap; background-color: rgb(255, 255, 255); text-decoration-thickness: initial; text-decoration-style: initial; text-decoration-color: initial; display: inline !important; float: none;&quot;&gt;odesłano&lt;/span&gt;&lt;br style=&quot;color: rgb(0, 0, 0); font-family: Helvetica; font-size: 12px; font-style: normal; font-variant-ligatures: normal; font-variant-caps: normal; font-weight: 400; letter-spacing: normal; orphans: 2; text-align: center; text-indent: 0px; text-transform: none; widows: 2; word-spacing: 0px; -webkit-text-stroke-width: 0px; white-space: nowrap; text-decoration-thickness: initial; text-decoration-style: initial; text-decoration-color: initial;&quot;&gt;&lt;span style=&quot;color: rgb(0, 0, 0); font-family: Helvetica; font-size: 12px; font-style: normal; font-variant-ligatures: normal; font-variant-caps: normal; font-weight: 400; letter-spacing: normal; orphans: 2; text-align: center; text-indent: 0px; text-transform: none; widows: 2; word-spacing: 0px; -webkit-text-stroke-width: 0px; white-space: nowrap; background-color: rgb(255, 255, 255); text-decoration-thickness: initial; text-decoration-style: initial; text-decoration-color: initial; display: inline !important; float: none;&quot;&gt;&amp;nbsp;do spółki matki&lt;/span&gt;&#xa;&#xa;" style="points=[[0.25,0,0],[0.5,0,0],[0.75,0,0],[1,0.25,0],[1,0.5,0],[1,0.75,0],[0.75,1,0],[0.5,1,0],[0.25,1,0],[0,0.75,0],[0,0.5,0],[0,0.25,0]];shape=mxgraph.bpmn.task;whiteSpace=wrap;rectStyle=rounded;size=10;html=1;container=1;expand=0;collapsible=0;taskMarker=abstract;" parent="4JJOVP_AdmXyafhe6PZB-2" vertex="1">
          <mxGeometry x="1025" y="41" width="120" height="80" as="geometry" />
        </mxCell>
        <mxCell id="4JJOVP_AdmXyafhe6PZB-12" value="&lt;span style=&quot;color: rgb(0, 0, 0); font-family: Helvetica; font-size: 12px; font-style: normal; font-variant-ligatures: normal; font-variant-caps: normal; font-weight: 400; letter-spacing: normal; orphans: 2; text-align: center; text-indent: 0px; text-transform: none; widows: 2; word-spacing: 0px; -webkit-text-stroke-width: 0px; white-space: nowrap; background-color: rgb(255, 255, 255); text-decoration-thickness: initial; text-decoration-style: initial; text-decoration-color: initial; display: inline !important; float: none;&quot;&gt;przesłanie faktury&lt;/span&gt;&lt;br style=&quot;color: rgb(0, 0, 0); font-family: Helvetica; font-size: 12px; font-style: normal; font-variant-ligatures: normal; font-variant-caps: normal; font-weight: 400; letter-spacing: normal; orphans: 2; text-align: center; text-indent: 0px; text-transform: none; widows: 2; word-spacing: 0px; -webkit-text-stroke-width: 0px; white-space: nowrap; text-decoration-thickness: initial; text-decoration-style: initial; text-decoration-color: initial;&quot;&gt;&lt;span style=&quot;color: rgb(0, 0, 0); font-family: Helvetica; font-size: 12px; font-style: normal; font-variant-ligatures: normal; font-variant-caps: normal; font-weight: 400; letter-spacing: normal; orphans: 2; text-align: center; text-indent: 0px; text-transform: none; widows: 2; word-spacing: 0px; -webkit-text-stroke-width: 0px; white-space: nowrap; background-color: rgb(255, 255, 255); text-decoration-thickness: initial; text-decoration-style: initial; text-decoration-color: initial; display: inline !important; float: none;&quot;&gt;&amp;nbsp;do kontraktora&lt;/span&gt;" style="points=[[0.25,0,0],[0.5,0,0],[0.75,0,0],[1,0.25,0],[1,0.5,0],[1,0.75,0],[0.75,1,0],[0.5,1,0],[0.25,1,0],[0,0.75,0],[0,0.5,0],[0,0.25,0]];shape=mxgraph.bpmn.task;whiteSpace=wrap;rectStyle=rounded;size=10;html=1;container=1;expand=0;collapsible=0;taskMarker=abstract;" parent="4JJOVP_AdmXyafhe6PZB-2" vertex="1">
          <mxGeometry x="1180" y="40.5" width="120" height="80" as="geometry" />
        </mxCell>
        <mxCell id="4JJOVP_AdmXyafhe6PZB-13" value="&#xa;&lt;span style=&quot;color: rgb(0, 0, 0); font-family: Helvetica; font-size: 12px; font-style: normal; font-variant-ligatures: normal; font-variant-caps: normal; font-weight: 400; letter-spacing: normal; orphans: 2; text-align: center; text-indent: 0px; text-transform: none; widows: 2; word-spacing: 0px; -webkit-text-stroke-width: 0px; white-space: nowrap; background-color: rgb(255, 255, 255); text-decoration-thickness: initial; text-decoration-style: initial; text-decoration-color: initial; display: inline !important; float: none;&quot;&gt;przesłanie faktury&lt;/span&gt;&lt;br style=&quot;color: rgb(0, 0, 0); font-family: Helvetica; font-size: 12px; font-style: normal; font-variant-ligatures: normal; font-variant-caps: normal; font-weight: 400; letter-spacing: normal; orphans: 2; text-align: center; text-indent: 0px; text-transform: none; widows: 2; word-spacing: 0px; -webkit-text-stroke-width: 0px; white-space: nowrap; text-decoration-thickness: initial; text-decoration-style: initial; text-decoration-color: initial;&quot;&gt;&lt;span style=&quot;color: rgb(0, 0, 0); font-family: Helvetica; font-size: 12px; font-style: normal; font-variant-ligatures: normal; font-variant-caps: normal; font-weight: 400; letter-spacing: normal; orphans: 2; text-align: center; text-indent: 0px; text-transform: none; widows: 2; word-spacing: 0px; -webkit-text-stroke-width: 0px; white-space: nowrap; background-color: rgb(255, 255, 255); text-decoration-thickness: initial; text-decoration-style: initial; text-decoration-color: initial; display: inline !important; float: none;&quot;&gt;&amp;nbsp;do spółki matki&lt;/span&gt;&#xa;&#xa;" style="points=[[0.25,0,0],[0.5,0,0],[0.75,0,0],[1,0.25,0],[1,0.5,0],[1,0.75,0],[0.75,1,0],[0.5,1,0],[0.25,1,0],[0,0.75,0],[0,0.5,0],[0,0.25,0]];shape=mxgraph.bpmn.task;whiteSpace=wrap;rectStyle=rounded;size=10;html=1;container=1;expand=0;collapsible=0;taskMarker=abstract;" parent="4JJOVP_AdmXyafhe6PZB-2" vertex="1">
          <mxGeometry x="1341" y="38" width="120" height="80" as="geometry" />
        </mxCell>
        <mxCell id="4JJOVP_AdmXyafhe6PZB-14" value="Otrzymanie FV" style="points=[[0.25,0,0],[0.5,0,0],[0.75,0,0],[1,0.25,0],[1,0.5,0],[1,0.75,0],[0.75,1,0],[0.5,1,0],[0.25,1,0],[0,0.75,0],[0,0.5,0],[0,0.25,0]];shape=mxgraph.bpmn.task;whiteSpace=wrap;rectStyle=rounded;size=10;html=1;container=1;expand=0;collapsible=0;taskMarker=abstract;" parent="4JJOVP_AdmXyafhe6PZB-2" vertex="1">
          <mxGeometry x="222" y="44" width="120" height="80" as="geometry" />
        </mxCell>
        <mxCell id="4JJOVP_AdmXyafhe6PZB-15" value="PM" style="swimlane;html=1;startSize=20;horizontal=0;" parent="4JJOVP_AdmXyafhe6PZB-1" vertex="1">
          <mxGeometry x="20" y="161" width="1771" height="130" as="geometry" />
        </mxCell>
        <mxCell id="4JJOVP_AdmXyafhe6PZB-16" value="&lt;span style=&quot;text-wrap: nowrap;&quot;&gt;podpisanie FV&lt;/span&gt;" style="points=[[0.25,0,0],[0.5,0,0],[0.75,0,0],[1,0.25,0],[1,0.5,0],[1,0.75,0],[0.75,1,0],[0.5,1,0],[0.25,1,0],[0,0.75,0],[0,0.5,0],[0,0.25,0]];shape=mxgraph.bpmn.task;whiteSpace=wrap;rectStyle=rounded;size=10;html=1;container=1;expand=0;collapsible=0;taskMarker=abstract;" parent="4JJOVP_AdmXyafhe6PZB-15" vertex="1">
          <mxGeometry x="867" y="25" width="120" height="80" as="geometry" />
        </mxCell>
        <mxCell id="4JJOVP_AdmXyafhe6PZB-17" style="edgeStyle=orthogonalEdgeStyle;rounded=0;orthogonalLoop=1;jettySize=auto;html=1;entryX=0.5;entryY=0;entryDx=0;entryDy=0;entryPerimeter=0;" parent="4JJOVP_AdmXyafhe6PZB-1" source="4JJOVP_AdmXyafhe6PZB-10" target="4JJOVP_AdmXyafhe6PZB-16" edge="1">
          <mxGeometry relative="1" as="geometry">
            <mxPoint x="964" y="192" as="targetPoint" />
            <Array as="points">
              <mxPoint x="853" y="170" />
              <mxPoint x="947" y="170" />
            </Array>
          </mxGeometry>
        </mxCell>
        <mxCell id="4JJOVP_AdmXyafhe6PZB-18" style="edgeStyle=orthogonalEdgeStyle;rounded=0;orthogonalLoop=1;jettySize=auto;html=1;entryX=0;entryY=0.5;entryDx=0;entryDy=0;entryPerimeter=0;" parent="4JJOVP_AdmXyafhe6PZB-1" source="4JJOVP_AdmXyafhe6PZB-16" target="4JJOVP_AdmXyafhe6PZB-11" edge="1">
          <mxGeometry relative="1" as="geometry">
            <mxPoint x="989" y="217" as="sourcePoint" />
            <mxPoint x="1060" y="80.50000000000011" as="targetPoint" />
            <Array as="points">
              <mxPoint x="1025" y="226" />
              <mxPoint x="1025" y="81" />
            </Array>
          </mxGeometry>
        </mxCell>
        <mxCell id="4JJOVP_AdmXyafhe6PZB-19" value="Spółka Matka" style="swimlane;html=1;childLayout=stackLayout;resizeParent=1;resizeParentMax=0;horizontal=0;startSize=20;horizontalStack=0;whiteSpace=wrap;" parent="1" vertex="1">
          <mxGeometry x="-127" y="556" width="1792" height="240" as="geometry" />
        </mxCell>
        <mxCell id="4JJOVP_AdmXyafhe6PZB-20" value="Księgowa" style="swimlane;html=1;startSize=20;horizontal=0;" parent="4JJOVP_AdmXyafhe6PZB-19" vertex="1">
          <mxGeometry x="20" width="1772" height="120" as="geometry" />
        </mxCell>
        <mxCell id="4JJOVP_AdmXyafhe6PZB-21" value="weryfikacja wynagrodzenia bazowego" style="points=[[0.25,0,0],[0.5,0,0],[0.75,0,0],[1,0.25,0],[1,0.5,0],[1,0.75,0],[0.75,1,0],[0.5,1,0],[0.25,1,0],[0,0.75,0],[0,0.5,0],[0,0.25,0]];shape=mxgraph.bpmn.task;whiteSpace=wrap;rectStyle=rounded;size=10;html=1;container=1;expand=0;collapsible=0;taskMarker=abstract;" parent="4JJOVP_AdmXyafhe6PZB-20" vertex="1">
          <mxGeometry x="1228" y="20" width="120" height="80" as="geometry" />
        </mxCell>
        <mxCell id="4JJOVP_AdmXyafhe6PZB-22" style="edgeStyle=orthogonalEdgeStyle;rounded=0;orthogonalLoop=1;jettySize=auto;html=1;" parent="4JJOVP_AdmXyafhe6PZB-20" target="4JJOVP_AdmXyafhe6PZB-21" edge="1">
          <mxGeometry relative="1" as="geometry">
            <mxPoint x="1094" y="60" as="sourcePoint" />
          </mxGeometry>
        </mxCell>
        <mxCell id="4JJOVP_AdmXyafhe6PZB-23" value="&lt;br&gt;&lt;span style=&quot;color: rgb(0, 0, 0); font-family: Helvetica; font-size: 12px; font-style: normal; font-variant-ligatures: normal; font-variant-caps: normal; font-weight: 400; letter-spacing: normal; orphans: 2; text-align: center; text-indent: 0px; text-transform: none; widows: 2; word-spacing: 0px; -webkit-text-stroke-width: 0px; white-space: nowrap; background-color: rgb(255, 255, 255); text-decoration-thickness: initial; text-decoration-style: initial; text-decoration-color: initial; display: inline !important; float: none;&quot;&gt;Otrzymanie&amp;nbsp; FV&lt;/span&gt;&lt;div&gt;&lt;br/&gt;&lt;/div&gt;" style="points=[[0.25,0,0],[0.5,0,0],[0.75,0,0],[1,0.25,0],[1,0.5,0],[1,0.75,0],[0.75,1,0],[0.5,1,0],[0.25,1,0],[0,0.75,0],[0,0.5,0],[0,0.25,0]];shape=mxgraph.bpmn.task;whiteSpace=wrap;rectStyle=rounded;size=10;html=1;container=1;expand=0;collapsible=0;taskMarker=abstract;" parent="4JJOVP_AdmXyafhe6PZB-20" vertex="1">
          <mxGeometry x="1076" y="18" width="120" height="80" as="geometry" />
        </mxCell>
        <mxCell id="4JJOVP_AdmXyafhe6PZB-24" value="&lt;div&gt;Przesłanie do spółki córki&lt;/div&gt;" style="points=[[0.25,0,0],[0.5,0,0],[0.75,0,0],[1,0.25,0],[1,0.5,0],[1,0.75,0],[0.75,1,0],[0.5,1,0],[0.25,1,0],[0,0.75,0],[0,0.5,0],[0,0.25,0]];shape=mxgraph.bpmn.task;whiteSpace=wrap;rectStyle=rounded;size=10;html=1;container=1;expand=0;collapsible=0;taskMarker=abstract;" parent="4JJOVP_AdmXyafhe6PZB-20" vertex="1">
          <mxGeometry x="150" y="20" width="120" height="80" as="geometry" />
        </mxCell>
        <mxCell id="4JJOVP_AdmXyafhe6PZB-25" value="Księgowa Główna" style="swimlane;html=1;startSize=20;horizontal=0;" parent="4JJOVP_AdmXyafhe6PZB-19" vertex="1">
          <mxGeometry x="20" y="120" width="1772" height="120" as="geometry" />
        </mxCell>
        <mxCell id="4JJOVP_AdmXyafhe6PZB-26" style="edgeStyle=orthogonalEdgeStyle;rounded=0;orthogonalLoop=1;jettySize=auto;html=1;entryX=0;entryY=0.5;entryDx=0;entryDy=0;entryPerimeter=0;" parent="4JJOVP_AdmXyafhe6PZB-25" source="4JJOVP_AdmXyafhe6PZB-27" target="4JJOVP_AdmXyafhe6PZB-28" edge="1">
          <mxGeometry relative="1" as="geometry">
            <mxPoint x="1626" y="53" as="targetPoint" />
          </mxGeometry>
        </mxCell>
        <mxCell id="4JJOVP_AdmXyafhe6PZB-27" value="skierowanie do wypłaty" style="points=[[0.25,0,0],[0.5,0,0],[0.75,0,0],[1,0.25,0],[1,0.5,0],[1,0.75,0],[0.75,1,0],[0.5,1,0],[0.25,1,0],[0,0.75,0],[0,0.5,0],[0,0.25,0]];shape=mxgraph.bpmn.task;whiteSpace=wrap;rectStyle=rounded;size=10;html=1;container=1;expand=0;collapsible=0;taskMarker=abstract;" parent="4JJOVP_AdmXyafhe6PZB-25" vertex="1">
          <mxGeometry x="1344" y="20" width="120" height="80" as="geometry" />
        </mxCell>
        <mxCell id="4JJOVP_AdmXyafhe6PZB-28" value="" style="points=[[0.145,0.145,0],[0.5,0,0],[0.855,0.145,0],[1,0.5,0],[0.855,0.855,0],[0.5,1,0],[0.145,0.855,0],[0,0.5,0]];shape=mxgraph.bpmn.event;html=1;verticalLabelPosition=bottom;labelBackgroundColor=#ffffff;verticalAlign=top;align=center;perimeter=ellipsePerimeter;outlineConnect=0;aspect=fixed;outline=end;symbol=terminate2;" parent="4JJOVP_AdmXyafhe6PZB-25" vertex="1">
          <mxGeometry x="1579" y="35" width="50" height="50" as="geometry" />
        </mxCell>
        <mxCell id="4JJOVP_AdmXyafhe6PZB-29" value="" style="edgeStyle=orthogonalEdgeStyle;rounded=0;orthogonalLoop=1;jettySize=auto;html=1;exitX=0.5;exitY=1;exitDx=0;exitDy=0;exitPerimeter=0;entryX=0;entryY=0.5;entryDx=0;entryDy=0;entryPerimeter=0;" parent="4JJOVP_AdmXyafhe6PZB-19" source="4JJOVP_AdmXyafhe6PZB-21" target="4JJOVP_AdmXyafhe6PZB-27" edge="1">
          <mxGeometry relative="1" as="geometry">
            <mxPoint x="568" y="180" as="sourcePoint" />
            <mxPoint x="648" y="180" as="targetPoint" />
          </mxGeometry>
        </mxCell>
        <mxCell id="4JJOVP_AdmXyafhe6PZB-30" value="poprawne" style="edgeLabel;html=1;align=center;verticalAlign=middle;resizable=0;points=[];" parent="4JJOVP_AdmXyafhe6PZB-29" vertex="1" connectable="0">
          <mxGeometry x="0.0765" y="3" relative="1" as="geometry">
            <mxPoint x="-1" as="offset" />
          </mxGeometry>
        </mxCell>
        <mxCell id="4JJOVP_AdmXyafhe6PZB-31" value="Kontraktor" style="swimlane;startSize=20;horizontal=0;html=1;whiteSpace=wrap;fontStyle=0" parent="1" vertex="1">
          <mxGeometry x="-122" y="27" width="1783" height="143" as="geometry" />
        </mxCell>
        <mxCell id="4JJOVP_AdmXyafhe6PZB-32" style="edgeStyle=orthogonalEdgeStyle;rounded=0;orthogonalLoop=1;jettySize=auto;html=1;exitX=1;exitY=0.5;exitDx=0;exitDy=0;exitPerimeter=0;" parent="4JJOVP_AdmXyafhe6PZB-31" source="4JJOVP_AdmXyafhe6PZB-33" target="4JJOVP_AdmXyafhe6PZB-34" edge="1">
          <mxGeometry relative="1" as="geometry">
            <mxPoint x="170" y="45" as="targetPoint" />
          </mxGeometry>
        </mxCell>
        <mxCell id="4JJOVP_AdmXyafhe6PZB-33" value="wystawiono FV" style="points=[[0.145,0.145,0],[0.5,0,0],[0.855,0.145,0],[1,0.5,0],[0.855,0.855,0],[0.5,1,0],[0.145,0.855,0],[0,0.5,0]];shape=mxgraph.bpmn.event;html=1;verticalLabelPosition=bottom;labelBackgroundColor=#ffffff;verticalAlign=top;align=center;perimeter=ellipsePerimeter;outlineConnect=0;aspect=fixed;outline=standard;symbol=general;" parent="4JJOVP_AdmXyafhe6PZB-31" vertex="1">
          <mxGeometry x="40" y="20" width="50" height="50" as="geometry" />
        </mxCell>
        <mxCell id="4JJOVP_AdmXyafhe6PZB-34" value="czy wysłane do matki" style="points=[[0.25,0.25,0],[0.5,0,0],[0.75,0.25,0],[1,0.5,0],[0.75,0.75,0],[0.5,1,0],[0.25,0.75,0],[0,0.5,0]];shape=mxgraph.bpmn.gateway2;html=1;verticalLabelPosition=bottom;labelBackgroundColor=#ffffff;verticalAlign=top;align=center;perimeter=rhombusPerimeter;outlineConnect=0;outline=none;symbol=none;" parent="4JJOVP_AdmXyafhe6PZB-31" vertex="1">
          <mxGeometry x="170" y="20" width="50" height="50" as="geometry" />
        </mxCell>
        <mxCell id="4JJOVP_AdmXyafhe6PZB-35" value="poprawianie FV" style="points=[[0.25,0,0],[0.5,0,0],[0.75,0,0],[1,0.25,0],[1,0.5,0],[1,0.75,0],[0.75,1,0],[0.5,1,0],[0.25,1,0],[0,0.75,0],[0,0.5,0],[0,0.25,0]];shape=mxgraph.bpmn.task;whiteSpace=wrap;rectStyle=rounded;size=10;html=1;container=1;expand=0;collapsible=0;taskMarker=abstract;" parent="4JJOVP_AdmXyafhe6PZB-31" vertex="1">
          <mxGeometry x="822" y="38" width="120" height="80" as="geometry" />
        </mxCell>
        <mxCell id="4JJOVP_AdmXyafhe6PZB-36" style="edgeStyle=orthogonalEdgeStyle;rounded=0;orthogonalLoop=1;jettySize=auto;html=1;entryX=0;entryY=0.5;entryDx=0;entryDy=0;entryPerimeter=0;exitX=1;exitY=0.5;exitDx=0;exitDy=0;exitPerimeter=0;" parent="4JJOVP_AdmXyafhe6PZB-31" source="4JJOVP_AdmXyafhe6PZB-37" target="4JJOVP_AdmXyafhe6PZB-35" edge="1">
          <mxGeometry relative="1" as="geometry">
            <mxPoint x="563.9999307957523" y="66.05882352941171" as="sourcePoint" />
            <Array as="points">
              <mxPoint x="822" y="72" />
            </Array>
          </mxGeometry>
        </mxCell>
        <mxCell id="4JJOVP_AdmXyafhe6PZB-37" value="&#xa;&lt;span style=&quot;color: rgb(0, 0, 0); font-family: Helvetica; font-size: 12px; font-style: normal; font-variant-ligatures: normal; font-variant-caps: normal; font-weight: 400; letter-spacing: normal; orphans: 2; text-align: center; text-indent: 0px; text-transform: none; widows: 2; word-spacing: 0px; -webkit-text-stroke-width: 0px; white-space: nowrap; background-color: rgb(255, 255, 255); text-decoration-thickness: initial; text-decoration-style: initial; text-decoration-color: initial; display: inline !important; float: none;&quot;&gt;Otrzymano FV&lt;/span&gt;&#xa;&#xa;" style="points=[[0.25,0,0],[0.5,0,0],[0.75,0,0],[1,0.25,0],[1,0.5,0],[1,0.75,0],[0.75,1,0],[0.5,1,0],[0.25,1,0],[0,0.75,0],[0,0.5,0],[0,0.25,0]];shape=mxgraph.bpmn.task;whiteSpace=wrap;rectStyle=rounded;size=10;html=1;container=1;expand=0;collapsible=0;taskMarker=abstract;" parent="4JJOVP_AdmXyafhe6PZB-31" vertex="1">
          <mxGeometry x="477" y="32" width="120" height="80" as="geometry" />
        </mxCell>
        <mxCell id="4JJOVP_AdmXyafhe6PZB-38" value="" style="edgeStyle=elbowEdgeStyle;fontSize=12;html=1;endFill=0;startFill=0;endSize=6;startSize=6;dashed=1;dashPattern=12 12;endArrow=block;startArrow=oval;rounded=0;exitX=1;exitY=0.5;exitDx=0;exitDy=0;exitPerimeter=0;entryX=0.366;entryY=0.015;entryDx=0;entryDy=0;entryPerimeter=0;" parent="1" source="4JJOVP_AdmXyafhe6PZB-34" target="4JJOVP_AdmXyafhe6PZB-14" edge="1">
          <mxGeometry width="160" relative="1" as="geometry">
            <mxPoint x="550" y="90" as="sourcePoint" />
            <mxPoint x="161" y="255" as="targetPoint" />
            <Array as="points">
              <mxPoint x="161" y="170" />
            </Array>
          </mxGeometry>
        </mxCell>
        <mxCell id="4JJOVP_AdmXyafhe6PZB-39" value="NIE" style="edgeLabel;html=1;align=center;verticalAlign=middle;resizable=0;points=[];" parent="4JJOVP_AdmXyafhe6PZB-38" vertex="1" connectable="0">
          <mxGeometry x="-0.6573" y="-1" relative="1" as="geometry">
            <mxPoint y="-1" as="offset" />
          </mxGeometry>
        </mxCell>
        <mxCell id="4JJOVP_AdmXyafhe6PZB-40" value="" style="edgeStyle=elbowEdgeStyle;fontSize=12;html=1;endFill=0;startFill=0;endSize=6;startSize=6;dashed=1;dashPattern=12 12;endArrow=block;startArrow=oval;rounded=0;exitX=0.5;exitY=0;exitDx=0;exitDy=0;exitPerimeter=0;" parent="1" source="4JJOVP_AdmXyafhe6PZB-24" edge="1">
          <mxGeometry width="160" relative="1" as="geometry">
            <mxPoint x="72" y="560" as="sourcePoint" />
            <mxPoint x="115" y="299" as="targetPoint" />
            <Array as="points">
              <mxPoint x="107" y="428" />
            </Array>
          </mxGeometry>
        </mxCell>
        <mxCell id="4JJOVP_AdmXyafhe6PZB-41" value="niezweryfikowana" style="edgeLabel;html=1;align=center;verticalAlign=middle;resizable=0;points=[];" parent="4JJOVP_AdmXyafhe6PZB-40" vertex="1" connectable="0">
          <mxGeometry x="-0.1627" y="-5" relative="1" as="geometry">
            <mxPoint as="offset" />
          </mxGeometry>
        </mxCell>
        <mxCell id="4JJOVP_AdmXyafhe6PZB-42" style="edgeStyle=orthogonalEdgeStyle;rounded=0;orthogonalLoop=1;jettySize=auto;html=1;dashed=1;endArrow=block;endFill=0;dashPattern=12 12;startArrow=oval;startFill=0;" parent="1" source="4JJOVP_AdmXyafhe6PZB-7" edge="1">
          <mxGeometry relative="1" as="geometry">
            <mxPoint x="417" y="141" as="targetPoint" />
            <Array as="points">
              <mxPoint x="507" y="275" />
              <mxPoint x="417" y="275" />
            </Array>
          </mxGeometry>
        </mxCell>
        <mxCell id="4JJOVP_AdmXyafhe6PZB-43" value="niepoprawne koszty" style="edgeLabel;html=1;align=center;verticalAlign=middle;resizable=0;points=[];" parent="4JJOVP_AdmXyafhe6PZB-42" vertex="1" connectable="0">
          <mxGeometry x="-0.4764" relative="1" as="geometry">
            <mxPoint x="11" y="-9" as="offset" />
          </mxGeometry>
        </mxCell>
        <mxCell id="4JJOVP_AdmXyafhe6PZB-44" style="edgeStyle=orthogonalEdgeStyle;rounded=0;orthogonalLoop=1;jettySize=auto;html=1;dashed=1;endArrow=block;endFill=0;dashPattern=12 12;startArrow=oval;startFill=0;" parent="1" source="4JJOVP_AdmXyafhe6PZB-10" edge="1">
          <mxGeometry relative="1" as="geometry">
            <mxPoint x="417" y="140" as="targetPoint" />
            <Array as="points">
              <mxPoint x="728" y="247" />
              <mxPoint x="418" y="247" />
              <mxPoint x="418" y="129" />
            </Array>
          </mxGeometry>
        </mxCell>
        <mxCell id="4JJOVP_AdmXyafhe6PZB-45" value="niepoprawna prowizja" style="edgeLabel;html=1;align=center;verticalAlign=middle;resizable=0;points=[];" parent="4JJOVP_AdmXyafhe6PZB-44" vertex="1" connectable="0">
          <mxGeometry x="-0.3056" y="1" relative="1" as="geometry">
            <mxPoint as="offset" />
          </mxGeometry>
        </mxCell>
        <mxCell id="4JJOVP_AdmXyafhe6PZB-46" value="niepoprawna premia" style="edgeStyle=orthogonalEdgeStyle;rounded=0;orthogonalLoop=1;jettySize=auto;html=1;dashed=1;endArrow=block;endFill=0;startArrow=oval;startFill=0;dashPattern=12 12;" parent="1" source="4JJOVP_AdmXyafhe6PZB-3" edge="1">
          <mxGeometry x="-0.6321" y="8" relative="1" as="geometry">
            <mxPoint x="417" y="137" as="targetPoint" />
            <Array as="points">
              <mxPoint x="318" y="260" />
              <mxPoint x="418" y="260" />
            </Array>
            <mxPoint as="offset" />
          </mxGeometry>
        </mxCell>
        <mxCell id="4JJOVP_AdmXyafhe6PZB-47" value="" style="edgeStyle=elbowEdgeStyle;fontSize=12;html=1;endFill=0;startFill=0;endSize=6;startSize=6;dashed=1;dashPattern=12 12;endArrow=block;startArrow=oval;rounded=0;exitX=0.5;exitY=1;exitDx=0;exitDy=0;exitPerimeter=0;entryX=0;entryY=0.5;entryDx=0;entryDy=0;entryPerimeter=0;" parent="1" source="4JJOVP_AdmXyafhe6PZB-34" edge="1">
          <mxGeometry width="160" relative="1" as="geometry">
            <mxPoint x="272" y="145" as="sourcePoint" />
            <mxPoint x="47" y="585" as="targetPoint" />
            <Array as="points">
              <mxPoint x="25" y="521" />
            </Array>
          </mxGeometry>
        </mxCell>
        <mxCell id="4JJOVP_AdmXyafhe6PZB-48" value="TAK" style="edgeLabel;html=1;align=center;verticalAlign=middle;resizable=0;points=[];" parent="4JJOVP_AdmXyafhe6PZB-47" vertex="1" connectable="0">
          <mxGeometry x="-0.1362" y="-2" relative="1" as="geometry">
            <mxPoint as="offset" />
          </mxGeometry>
        </mxCell>
        <mxCell id="4JJOVP_AdmXyafhe6PZB-49" value="niepoprawne wynagrodzenie bazowe" style="edgeStyle=orthogonalEdgeStyle;rounded=0;orthogonalLoop=1;jettySize=auto;html=1;dashed=1;endArrow=block;endFill=0;dashPattern=12 12;startArrow=oval;startFill=0;" parent="1" source="4JJOVP_AdmXyafhe6PZB-21" target="4JJOVP_AdmXyafhe6PZB-12" edge="1">
          <mxGeometry relative="1" as="geometry">
            <mxPoint x="1117" y="322.1854385646542" as="targetPoint" />
            <Array as="points">
              <mxPoint x="1185" y="433" />
              <mxPoint x="1133" y="433" />
            </Array>
          </mxGeometry>
        </mxCell>
        <mxCell id="4JJOVP_AdmXyafhe6PZB-50" style="edgeStyle=orthogonalEdgeStyle;rounded=0;orthogonalLoop=1;jettySize=auto;html=1;dashed=1;endArrow=block;endFill=0;dashPattern=12 12;startArrow=oval;startFill=0;exitX=0.5;exitY=0;exitDx=0;exitDy=0;exitPerimeter=0;entryX=0.5;entryY=1;entryDx=0;entryDy=0;entryPerimeter=0;" parent="1" source="4JJOVP_AdmXyafhe6PZB-12" target="4JJOVP_AdmXyafhe6PZB-37" edge="1">
          <mxGeometry relative="1" as="geometry">
            <mxPoint x="1127" y="273.58012841124594" as="sourcePoint" />
            <mxPoint x="417" y="118" as="targetPoint" />
            <Array as="points">
              <mxPoint x="1133" y="230" />
              <mxPoint x="418" y="230" />
              <mxPoint x="418" y="139" />
            </Array>
          </mxGeometry>
        </mxCell>
        <mxCell id="4JJOVP_AdmXyafhe6PZB-51" value="nieopoprawne wynagrodzenie bazowe" style="edgeLabel;html=1;align=center;verticalAlign=middle;resizable=0;points=[];" parent="4JJOVP_AdmXyafhe6PZB-50" vertex="1" connectable="0">
          <mxGeometry x="-0.3909" y="-1" relative="1" as="geometry">
            <mxPoint as="offset" />
          </mxGeometry>
        </mxCell>
        <mxCell id="4JJOVP_AdmXyafhe6PZB-52" value="poprawione wynagrodzenie bazowe" style="edgeStyle=orthogonalEdgeStyle;rounded=0;orthogonalLoop=1;jettySize=auto;html=1;entryX=0.5;entryY=0;entryDx=0;entryDy=0;entryPerimeter=0;dashed=1;endArrow=block;endFill=0;dashPattern=12 12;startArrow=oval;startFill=0;" parent="1" source="4JJOVP_AdmXyafhe6PZB-35" target="4JJOVP_AdmXyafhe6PZB-13" edge="1">
          <mxGeometry relative="1" as="geometry">
            <mxPoint x="1293" y="273.5000000000001" as="targetPoint" />
          </mxGeometry>
        </mxCell>
        <mxCell id="4JJOVP_AdmXyafhe6PZB-53" style="edgeStyle=orthogonalEdgeStyle;rounded=0;orthogonalLoop=1;jettySize=auto;html=1;dashed=1;endArrow=block;endFill=0;dashPattern=12 12;startArrow=oval;startFill=0;entryX=0.5;entryY=0;entryDx=0;entryDy=0;entryPerimeter=0;exitX=0.5;exitY=1;exitDx=0;exitDy=0;exitPerimeter=0;" parent="1" source="4JJOVP_AdmXyafhe6PZB-13" target="4JJOVP_AdmXyafhe6PZB-23" edge="1">
          <mxGeometry relative="1" as="geometry">
            <mxPoint x="1293" y="323.5000000000001" as="sourcePoint" />
            <mxPoint x="957" y="569" as="targetPoint" />
            <Array as="points">
              <mxPoint x="1294" y="496" />
              <mxPoint x="1033" y="496" />
            </Array>
          </mxGeometry>
        </mxCell>
        <mxCell id="4JJOVP_AdmXyafhe6PZB-54" style="edgeStyle=orthogonalEdgeStyle;rounded=0;orthogonalLoop=1;jettySize=auto;html=1;dashed=1;endArrow=block;endFill=0;startArrow=oval;startFill=0;dashPattern=12 12;" parent="1" source="4JJOVP_AdmXyafhe6PZB-35" edge="1">
          <mxGeometry relative="1" as="geometry">
            <mxPoint x="187" y="261" as="targetPoint" />
            <Array as="points">
              <mxPoint x="725" y="40" />
              <mxPoint x="187" y="40" />
            </Array>
          </mxGeometry>
        </mxCell>
        <mxCell id="4JJOVP_AdmXyafhe6PZB-55" value="poprawione składniki niebazowe" style="edgeLabel;html=1;align=center;verticalAlign=middle;resizable=0;points=[];" parent="4JJOVP_AdmXyafhe6PZB-54" vertex="1" connectable="0">
          <mxGeometry x="-0.1713" y="1" relative="1" as="geometry">
            <mxPoint as="offset" />
          </mxGeometry>
        </mxCell>
        <mxCell id="4JJOVP_AdmXyafhe6PZB-56" style="edgeStyle=orthogonalEdgeStyle;rounded=0;orthogonalLoop=1;jettySize=auto;html=1;dashed=1;endArrow=block;endFill=0;dashPattern=12 12;startArrow=oval;startFill=0;exitX=0.5;exitY=1;exitDx=0;exitDy=0;exitPerimeter=0;entryX=0;entryY=0.5;entryDx=0;entryDy=0;entryPerimeter=0;" parent="1" source="4JJOVP_AdmXyafhe6PZB-11" target="4JJOVP_AdmXyafhe6PZB-23" edge="1">
          <mxGeometry relative="1" as="geometry">
            <mxPoint x="1396" y="353" as="sourcePoint" />
            <mxPoint x="975" y="548" as="targetPoint" />
            <Array as="points">
              <mxPoint x="978" y="400" />
              <mxPoint x="939" y="400" />
              <mxPoint x="939" y="609" />
              <mxPoint x="973" y="609" />
              <mxPoint x="973" y="614" />
            </Array>
          </mxGeometry>
        </mxCell>
        <mxCell id="4JJOVP_AdmXyafhe6PZB-57" value="podpisana faktura" style="edgeLabel;html=1;align=center;verticalAlign=middle;resizable=0;points=[];" parent="4JJOVP_AdmXyafhe6PZB-56" vertex="1" connectable="0">
          <mxGeometry x="-0.2423" y="3" relative="1" as="geometry">
            <mxPoint x="-6" y="96" as="offset" />
          </mxGeometry>
        </mxCell>
      </root>
    </mxGraphModel>
  </diagram>
  <diagram name="optymalizacja poglądowy" id="2VhBPM73JccGWM5bMuiH">
    <mxGraphModel dx="1834" dy="1644" grid="0" gridSize="10" guides="1" tooltips="1" connect="1" arrows="1" fold="1" page="0" pageScale="1" pageWidth="827" pageHeight="1169" math="0" shadow="0">
      <root>
        <mxCell id="0" />
        <mxCell id="1" parent="0" />
        <mxCell id="nP7pViKDnt2iQp_VS-PC-2" style="edgeStyle=orthogonalEdgeStyle;rounded=0;orthogonalLoop=1;jettySize=auto;html=1;" parent="1" source="igKlVJRjT-ZjgtN8OfQl-20" edge="1">
          <mxGeometry relative="1" as="geometry">
            <mxPoint x="36" y="-66" as="targetPoint" />
          </mxGeometry>
        </mxCell>
        <mxCell id="igKlVJRjT-ZjgtN8OfQl-20" value="wystawiono FV" style="points=[[0.145,0.145,0],[0.5,0,0],[0.855,0.145,0],[1,0.5,0],[0.855,0.855,0],[0.5,1,0],[0.145,0.855,0],[0,0.5,0]];shape=mxgraph.bpmn.event;html=1;verticalLabelPosition=bottom;labelBackgroundColor=#ffffff;verticalAlign=top;align=center;perimeter=ellipsePerimeter;outlineConnect=0;aspect=fixed;outline=standard;symbol=general;" parent="1" vertex="1">
          <mxGeometry x="-86" y="-91" width="50" height="50" as="geometry" />
        </mxCell>
        <mxCell id="CFvRTA5sExfFh2Sac8Xk-1" value="weryfikacja wynagrodzenia bazowego" style="points=[[0.25,0,0],[0.5,0,0],[0.75,0,0],[1,0.25,0],[1,0.5,0],[1,0.75,0],[0.75,1,0],[0.5,1,0],[0.25,1,0],[0,0.75,0],[0,0.5,0],[0,0.25,0]];shape=mxgraph.bpmn.task;whiteSpace=wrap;rectStyle=rounded;size=10;html=1;container=1;expand=0;collapsible=0;taskMarker=abstract;" parent="1" vertex="1">
          <mxGeometry x="233" y="26" width="120" height="80" as="geometry" />
        </mxCell>
        <mxCell id="CFvRTA5sExfFh2Sac8Xk-2" style="edgeStyle=orthogonalEdgeStyle;rounded=0;orthogonalLoop=1;jettySize=auto;html=1;entryX=0;entryY=0.588;entryDx=0;entryDy=0;entryPerimeter=0;startArrow=dash;startFill=0;" parent="1" target="CFvRTA5sExfFh2Sac8Xk-1" edge="1">
          <mxGeometry relative="1" as="geometry">
            <Array as="points">
              <mxPoint x="61" y="73" />
            </Array>
            <mxPoint x="61" y="-41" as="sourcePoint" />
          </mxGeometry>
        </mxCell>
        <mxCell id="8N1wUoo7M_bI2fPKHLWg-1" value="weryfikacja poprawności premii" style="points=[[0.25,0,0],[0.5,0,0],[0.75,0,0],[1,0.25,0],[1,0.5,0],[1,0.75,0],[0.75,1,0],[0.5,1,0],[0.25,1,0],[0,0.75,0],[0,0.5,0],[0,0.25,0]];shape=mxgraph.bpmn.task;whiteSpace=wrap;rectStyle=rounded;size=10;html=1;container=1;expand=0;collapsible=0;taskMarker=abstract;" parent="1" vertex="1">
          <mxGeometry x="233" y="-413" width="120" height="80" as="geometry" />
        </mxCell>
        <mxCell id="8N1wUoo7M_bI2fPKHLWg-11" style="edgeStyle=orthogonalEdgeStyle;rounded=0;orthogonalLoop=1;jettySize=auto;html=1;" parent="1" source="8N1wUoo7M_bI2fPKHLWg-2" target="8N1wUoo7M_bI2fPKHLWg-9" edge="1">
          <mxGeometry relative="1" as="geometry" />
        </mxCell>
        <mxCell id="8N1wUoo7M_bI2fPKHLWg-2" value="weryfikacja poprawności zwrotu kosztów" style="points=[[0.25,0,0],[0.5,0,0],[0.75,0,0],[1,0.25,0],[1,0.5,0],[1,0.75,0],[0.75,1,0],[0.5,1,0],[0.25,1,0],[0,0.75,0],[0,0.5,0],[0,0.25,0]];shape=mxgraph.bpmn.task;whiteSpace=wrap;rectStyle=rounded;size=10;html=1;container=1;expand=0;collapsible=0;taskMarker=abstract;" parent="1" vertex="1">
          <mxGeometry x="233" y="-307" width="120" height="80" as="geometry" />
        </mxCell>
        <mxCell id="8N1wUoo7M_bI2fPKHLWg-3" value="weryfikacja poprawności prowizji sprzedaży" style="points=[[0.25,0,0],[0.5,0,0],[0.75,0,0],[1,0.25,0],[1,0.5,0],[1,0.75,0],[0.75,1,0],[0.5,1,0],[0.25,1,0],[0,0.75,0],[0,0.5,0],[0,0.25,0]];shape=mxgraph.bpmn.task;whiteSpace=wrap;rectStyle=rounded;size=10;html=1;container=1;expand=0;collapsible=0;taskMarker=abstract;" parent="1" vertex="1">
          <mxGeometry x="233" y="-198" width="120" height="80" as="geometry" />
        </mxCell>
        <mxCell id="8N1wUoo7M_bI2fPKHLWg-4" value="" style="points=[[0.25,0.25,0],[0.5,0,0],[0.75,0.25,0],[1,0.5,0],[0.75,0.75,0],[0.5,1,0],[0.25,0.75,0],[0,0.5,0]];shape=mxgraph.bpmn.gateway2;html=1;verticalLabelPosition=bottom;labelBackgroundColor=#ffffff;verticalAlign=top;align=center;perimeter=rhombusPerimeter;outlineConnect=0;outline=none;symbol=none;gwType=parallel;" parent="1" vertex="1">
          <mxGeometry x="130" y="-292" width="50" height="50" as="geometry" />
        </mxCell>
        <mxCell id="8N1wUoo7M_bI2fPKHLWg-5" style="edgeStyle=orthogonalEdgeStyle;rounded=0;orthogonalLoop=1;jettySize=auto;html=1;entryX=0;entryY=0.5;entryDx=0;entryDy=0;entryPerimeter=0;" parent="1" target="8N1wUoo7M_bI2fPKHLWg-4" edge="1">
          <mxGeometry relative="1" as="geometry">
            <Array as="points">
              <mxPoint x="61" y="-267" />
            </Array>
            <mxPoint x="61" y="-91" as="sourcePoint" />
          </mxGeometry>
        </mxCell>
        <mxCell id="8N1wUoo7M_bI2fPKHLWg-6" style="edgeStyle=orthogonalEdgeStyle;rounded=0;orthogonalLoop=1;jettySize=auto;html=1;entryX=0;entryY=0.5;entryDx=0;entryDy=0;entryPerimeter=0;" parent="1" source="8N1wUoo7M_bI2fPKHLWg-4" target="8N1wUoo7M_bI2fPKHLWg-1" edge="1">
          <mxGeometry relative="1" as="geometry">
            <Array as="points">
              <mxPoint x="155" y="-373" />
            </Array>
          </mxGeometry>
        </mxCell>
        <mxCell id="8N1wUoo7M_bI2fPKHLWg-7" style="edgeStyle=orthogonalEdgeStyle;rounded=0;orthogonalLoop=1;jettySize=auto;html=1;entryX=0;entryY=0.5;entryDx=0;entryDy=0;entryPerimeter=0;" parent="1" source="8N1wUoo7M_bI2fPKHLWg-4" target="8N1wUoo7M_bI2fPKHLWg-3" edge="1">
          <mxGeometry relative="1" as="geometry">
            <Array as="points">
              <mxPoint x="155" y="-158" />
            </Array>
          </mxGeometry>
        </mxCell>
        <mxCell id="8N1wUoo7M_bI2fPKHLWg-8" style="edgeStyle=orthogonalEdgeStyle;rounded=0;orthogonalLoop=1;jettySize=auto;html=1;entryX=0;entryY=0.5;entryDx=0;entryDy=0;entryPerimeter=0;" parent="1" source="8N1wUoo7M_bI2fPKHLWg-4" target="8N1wUoo7M_bI2fPKHLWg-2" edge="1">
          <mxGeometry relative="1" as="geometry" />
        </mxCell>
        <mxCell id="8N1wUoo7M_bI2fPKHLWg-13" style="edgeStyle=orthogonalEdgeStyle;rounded=0;orthogonalLoop=1;jettySize=auto;html=1;exitX=1;exitY=0.5;exitDx=0;exitDy=0;exitPerimeter=0;" parent="1" source="8N1wUoo7M_bI2fPKHLWg-9" target="8N1wUoo7M_bI2fPKHLWg-14" edge="1">
          <mxGeometry relative="1" as="geometry">
            <mxPoint x="557" y="-75" as="targetPoint" />
            <Array as="points">
              <mxPoint x="500" y="-267" />
              <mxPoint x="500" y="-66" />
            </Array>
          </mxGeometry>
        </mxCell>
        <mxCell id="8N1wUoo7M_bI2fPKHLWg-9" value="" style="points=[[0.25,0.25,0],[0.5,0,0],[0.75,0.25,0],[1,0.5,0],[0.75,0.75,0],[0.5,1,0],[0.25,0.75,0],[0,0.5,0]];shape=mxgraph.bpmn.gateway2;html=1;verticalLabelPosition=bottom;labelBackgroundColor=#ffffff;verticalAlign=top;align=center;perimeter=rhombusPerimeter;outlineConnect=0;outline=none;symbol=none;gwType=parallel;" parent="1" vertex="1">
          <mxGeometry x="424" y="-292" width="50" height="50" as="geometry" />
        </mxCell>
        <mxCell id="8N1wUoo7M_bI2fPKHLWg-10" style="edgeStyle=orthogonalEdgeStyle;rounded=0;orthogonalLoop=1;jettySize=auto;html=1;entryX=0.5;entryY=0;entryDx=0;entryDy=0;entryPerimeter=0;" parent="1" source="8N1wUoo7M_bI2fPKHLWg-1" target="8N1wUoo7M_bI2fPKHLWg-9" edge="1">
          <mxGeometry relative="1" as="geometry" />
        </mxCell>
        <mxCell id="8N1wUoo7M_bI2fPKHLWg-12" style="edgeStyle=orthogonalEdgeStyle;rounded=0;orthogonalLoop=1;jettySize=auto;html=1;entryX=0.5;entryY=1;entryDx=0;entryDy=0;entryPerimeter=0;" parent="1" source="8N1wUoo7M_bI2fPKHLWg-3" target="8N1wUoo7M_bI2fPKHLWg-9" edge="1">
          <mxGeometry relative="1" as="geometry" />
        </mxCell>
        <mxCell id="1OD0CMgBSwHWyzleZAQM-3" value="Faktura poprawna" style="edgeStyle=orthogonalEdgeStyle;rounded=0;orthogonalLoop=1;jettySize=auto;html=1;entryX=0;entryY=0.5;entryDx=0;entryDy=0;entryPerimeter=0;" parent="1" source="8N1wUoo7M_bI2fPKHLWg-14" edge="1">
          <mxGeometry relative="1" as="geometry">
            <mxPoint x="875" y="-66" as="targetPoint" />
          </mxGeometry>
        </mxCell>
        <mxCell id="8N1wUoo7M_bI2fPKHLWg-14" value="" style="points=[[0.25,0.25,0],[0.5,0,0],[0.75,0.25,0],[1,0.5,0],[0.75,0.75,0],[0.5,1,0],[0.25,0.75,0],[0,0.5,0]];shape=mxgraph.bpmn.gateway2;html=1;verticalLabelPosition=bottom;labelBackgroundColor=#ffffff;verticalAlign=top;align=center;perimeter=rhombusPerimeter;outlineConnect=0;outline=none;symbol=none;gwType=exclusive;" parent="1" vertex="1">
          <mxGeometry x="539" y="-91" width="50" height="50" as="geometry" />
        </mxCell>
        <mxCell id="8N1wUoo7M_bI2fPKHLWg-15" style="edgeStyle=orthogonalEdgeStyle;rounded=0;orthogonalLoop=1;jettySize=auto;html=1;entryX=0.5;entryY=1;entryDx=0;entryDy=0;entryPerimeter=0;" parent="1" source="CFvRTA5sExfFh2Sac8Xk-1" target="8N1wUoo7M_bI2fPKHLWg-14" edge="1">
          <mxGeometry relative="1" as="geometry" />
        </mxCell>
        <mxCell id="1OD0CMgBSwHWyzleZAQM-1" style="edgeStyle=orthogonalEdgeStyle;rounded=0;orthogonalLoop=1;jettySize=auto;html=1;entryX=0.5;entryY=0;entryDx=0;entryDy=0;entryPerimeter=0;" parent="1" source="8N1wUoo7M_bI2fPKHLWg-14" target="igKlVJRjT-ZjgtN8OfQl-20" edge="1">
          <mxGeometry relative="1" as="geometry">
            <Array as="points">
              <mxPoint x="564" y="-473" />
              <mxPoint x="-61" y="-473" />
            </Array>
          </mxGeometry>
        </mxCell>
        <mxCell id="1OD0CMgBSwHWyzleZAQM-2" value="Faktura niepoprawna&lt;br&gt;Odrzucenie ze wskazaniem nieprawidłowości" style="edgeLabel;html=1;align=center;verticalAlign=middle;resizable=0;points=[];" parent="1OD0CMgBSwHWyzleZAQM-1" vertex="1" connectable="0">
          <mxGeometry x="-0.5712" y="1" relative="1" as="geometry">
            <mxPoint x="-290" y="-85" as="offset" />
          </mxGeometry>
        </mxCell>
        <mxCell id="N9hR2LNt6XB9IqcvWu5X-3" value="zaraportowanie zbiorczych kosztów projektu" style="points=[[0.25,0,0],[0.5,0,0],[0.75,0,0],[1,0.25,0],[1,0.5,0],[1,0.75,0],[0.75,1,0],[0.5,1,0],[0.25,1,0],[0,0.75,0],[0,0.5,0],[0,0.25,0]];shape=mxgraph.bpmn.task;whiteSpace=wrap;rectStyle=rounded;size=10;html=1;container=1;expand=0;collapsible=0;taskMarker=abstract;" vertex="1" parent="1">
          <mxGeometry x="823" y="-312" width="120" height="80" as="geometry" />
        </mxCell>
        <mxCell id="N9hR2LNt6XB9IqcvWu5X-7" value="&lt;span style=&quot;text-wrap: wrap;&quot;&gt;skierowanie do wypłaty&lt;/span&gt;" style="points=[[0.145,0.145,0],[0.5,0,0],[0.855,0.145,0],[1,0.5,0],[0.855,0.855,0],[0.5,1,0],[0.145,0.855,0],[0,0.5,0]];shape=mxgraph.bpmn.event;html=1;verticalLabelPosition=bottom;labelBackgroundColor=#ffffff;verticalAlign=top;align=center;perimeter=ellipsePerimeter;outlineConnect=0;aspect=fixed;outline=end;symbol=terminate2;" vertex="1" parent="1">
          <mxGeometry x="875" y="-91" width="50" height="50" as="geometry" />
        </mxCell>
        <mxCell id="i9yk8933ma220N26nlBX-3" value="" style="points=[[0.25,0.25,0],[0.5,0,0],[0.75,0.25,0],[1,0.5,0],[0.75,0.75,0],[0.5,1,0],[0.25,0.75,0],[0,0.5,0]];shape=mxgraph.bpmn.gateway2;html=1;verticalLabelPosition=bottom;labelBackgroundColor=#ffffff;verticalAlign=top;align=center;perimeter=rhombusPerimeter;outlineConnect=0;outline=end;symbol=general;" vertex="1" parent="1">
          <mxGeometry x="35" y="-91" width="50" height="50" as="geometry" />
        </mxCell>
        <mxCell id="xVUbg5nTCl3cYG6ZunHU-1" style="edgeStyle=orthogonalEdgeStyle;rounded=0;orthogonalLoop=1;jettySize=auto;html=1;exitX=0.75;exitY=0.25;exitDx=0;exitDy=0;exitPerimeter=0;entryX=0;entryY=0.5;entryDx=0;entryDy=0;entryPerimeter=0;" edge="1" parent="1" source="8N1wUoo7M_bI2fPKHLWg-14" target="N9hR2LNt6XB9IqcvWu5X-3">
          <mxGeometry relative="1" as="geometry" />
        </mxCell>
      </root>
    </mxGraphModel>
  </diagram>
  <diagram name="TO-BE" id="yBig7Cm_BnzbM3Dcc94L">
    <mxGraphModel dx="1909" dy="1288" grid="0" gridSize="10" guides="1" tooltips="1" connect="1" arrows="1" fold="1" page="0" pageScale="1" pageWidth="850" pageHeight="1100" math="0" shadow="0">
      <root>
        <mxCell id="gftJAqOermqP8OMer1aA-0" />
        <mxCell id="gftJAqOermqP8OMer1aA-1" parent="gftJAqOermqP8OMer1aA-0" />
        <mxCell id="gftJAqOermqP8OMer1aA-2" value="Spółka celowa&lt;span style=&quot;white-space: pre;&quot;&gt;&#x9;&lt;/span&gt;" style="swimlane;html=1;childLayout=stackLayout;resizeParent=1;resizeParentMax=0;horizontal=0;startSize=20;horizontalStack=0;whiteSpace=wrap;" parent="gftJAqOermqP8OMer1aA-1" vertex="1">
          <mxGeometry x="-125" y="187" width="1462" height="359" as="geometry" />
        </mxCell>
        <mxCell id="gftJAqOermqP8OMer1aA-3" value="Księgowa" style="swimlane;html=1;startSize=20;horizontal=0;" parent="gftJAqOermqP8OMer1aA-2" vertex="1">
          <mxGeometry x="20" width="1442" height="285" as="geometry" />
        </mxCell>
        <mxCell id="gftJAqOermqP8OMer1aA-4" value="weryfikacja poprawności premii" style="points=[[0.25,0,0],[0.5,0,0],[0.75,0,0],[1,0.25,0],[1,0.5,0],[1,0.75,0],[0.75,1,0],[0.5,1,0],[0.25,1,0],[0,0.75,0],[0,0.5,0],[0,0.25,0]];shape=mxgraph.bpmn.task;whiteSpace=wrap;rectStyle=rounded;size=10;html=1;container=1;expand=0;collapsible=0;taskMarker=abstract;" parent="gftJAqOermqP8OMer1aA-3" vertex="1">
          <mxGeometry x="626" y="11" width="120" height="80" as="geometry" />
        </mxCell>
        <mxCell id="gftJAqOermqP8OMer1aA-8" value="weryfikacja poprawności zwrotu kosztów" style="points=[[0.25,0,0],[0.5,0,0],[0.75,0,0],[1,0.25,0],[1,0.5,0],[1,0.75,0],[0.75,1,0],[0.5,1,0],[0.25,1,0],[0,0.75,0],[0,0.5,0],[0,0.25,0]];shape=mxgraph.bpmn.task;whiteSpace=wrap;rectStyle=rounded;size=10;html=1;container=1;expand=0;collapsible=0;taskMarker=abstract;" parent="gftJAqOermqP8OMer1aA-3" vertex="1">
          <mxGeometry x="626" y="102.5" width="120" height="80" as="geometry" />
        </mxCell>
        <mxCell id="gftJAqOermqP8OMer1aA-11" value="weryfikacja poprawności prowizji sprzedaży" style="points=[[0.25,0,0],[0.5,0,0],[0.75,0,0],[1,0.25,0],[1,0.5,0],[1,0.75,0],[0.75,1,0],[0.5,1,0],[0.25,1,0],[0,0.75,0],[0,0.5,0],[0,0.25,0]];shape=mxgraph.bpmn.task;whiteSpace=wrap;rectStyle=rounded;size=10;html=1;container=1;expand=0;collapsible=0;taskMarker=abstract;" parent="gftJAqOermqP8OMer1aA-3" vertex="1">
          <mxGeometry x="626" y="192" width="120" height="80" as="geometry" />
        </mxCell>
        <mxCell id="Vd0uFtN5qLyZOQnmuhGz-0" value="" style="points=[[0.25,0.25,0],[0.5,0,0],[0.75,0.25,0],[1,0.5,0],[0.75,0.75,0],[0.5,1,0],[0.25,0.75,0],[0,0.5,0]];shape=mxgraph.bpmn.gateway2;html=1;verticalLabelPosition=bottom;labelBackgroundColor=#ffffff;verticalAlign=top;align=center;perimeter=rhombusPerimeter;outlineConnect=0;outline=none;symbol=none;gwType=parallel;" vertex="1" parent="gftJAqOermqP8OMer1aA-3">
          <mxGeometry x="522" y="117" width="50" height="50" as="geometry" />
        </mxCell>
        <mxCell id="Vd0uFtN5qLyZOQnmuhGz-1" style="edgeStyle=orthogonalEdgeStyle;rounded=0;orthogonalLoop=1;jettySize=auto;html=1;entryX=0;entryY=0.5;entryDx=0;entryDy=0;entryPerimeter=0;" edge="1" parent="gftJAqOermqP8OMer1aA-3" source="Vd0uFtN5qLyZOQnmuhGz-0" target="gftJAqOermqP8OMer1aA-4">
          <mxGeometry relative="1" as="geometry">
            <Array as="points">
              <mxPoint x="547" y="51" />
            </Array>
          </mxGeometry>
        </mxCell>
        <mxCell id="Vd0uFtN5qLyZOQnmuhGz-2" style="edgeStyle=orthogonalEdgeStyle;rounded=0;orthogonalLoop=1;jettySize=auto;html=1;entryX=0;entryY=0.5;entryDx=0;entryDy=0;entryPerimeter=0;" edge="1" parent="gftJAqOermqP8OMer1aA-3" source="Vd0uFtN5qLyZOQnmuhGz-0" target="gftJAqOermqP8OMer1aA-8">
          <mxGeometry relative="1" as="geometry" />
        </mxCell>
        <mxCell id="Vd0uFtN5qLyZOQnmuhGz-3" style="edgeStyle=orthogonalEdgeStyle;rounded=0;orthogonalLoop=1;jettySize=auto;html=1;entryX=0;entryY=0.5;entryDx=0;entryDy=0;entryPerimeter=0;" edge="1" parent="gftJAqOermqP8OMer1aA-3" source="Vd0uFtN5qLyZOQnmuhGz-0" target="gftJAqOermqP8OMer1aA-11">
          <mxGeometry relative="1" as="geometry">
            <Array as="points">
              <mxPoint x="547" y="232" />
            </Array>
          </mxGeometry>
        </mxCell>
        <mxCell id="XIy0NOBV-VJ37zRSxqu9-15" value="" style="points=[[0.25,0.25,0],[0.5,0,0],[0.75,0.25,0],[1,0.5,0],[0.75,0.75,0],[0.5,1,0],[0.25,0.75,0],[0,0.5,0]];shape=mxgraph.bpmn.gateway2;html=1;verticalLabelPosition=bottom;labelBackgroundColor=#ffffff;verticalAlign=top;align=center;perimeter=rhombusPerimeter;outlineConnect=0;outline=none;symbol=none;gwType=parallel;" vertex="1" parent="gftJAqOermqP8OMer1aA-3">
          <mxGeometry x="800" y="118" width="50" height="50" as="geometry" />
        </mxCell>
        <mxCell id="XIy0NOBV-VJ37zRSxqu9-11" style="edgeStyle=orthogonalEdgeStyle;rounded=0;orthogonalLoop=1;jettySize=auto;html=1;entryX=0.5;entryY=0;entryDx=0;entryDy=0;entryPerimeter=0;" edge="1" parent="gftJAqOermqP8OMer1aA-3" source="gftJAqOermqP8OMer1aA-4" target="XIy0NOBV-VJ37zRSxqu9-15">
          <mxGeometry relative="1" as="geometry">
            <mxPoint x="881" y="395" as="targetPoint" />
          </mxGeometry>
        </mxCell>
        <mxCell id="XIy0NOBV-VJ37zRSxqu9-16" style="edgeStyle=orthogonalEdgeStyle;rounded=0;orthogonalLoop=1;jettySize=auto;html=1;entryX=0;entryY=0.5;entryDx=0;entryDy=0;entryPerimeter=0;" edge="1" parent="gftJAqOermqP8OMer1aA-3" source="gftJAqOermqP8OMer1aA-8" target="XIy0NOBV-VJ37zRSxqu9-15">
          <mxGeometry relative="1" as="geometry" />
        </mxCell>
        <mxCell id="XIy0NOBV-VJ37zRSxqu9-17" style="edgeStyle=orthogonalEdgeStyle;rounded=0;orthogonalLoop=1;jettySize=auto;html=1;entryX=0.5;entryY=1;entryDx=0;entryDy=0;entryPerimeter=0;" edge="1" parent="gftJAqOermqP8OMer1aA-3" source="gftJAqOermqP8OMer1aA-11" target="XIy0NOBV-VJ37zRSxqu9-15">
          <mxGeometry relative="1" as="geometry" />
        </mxCell>
        <mxCell id="gftJAqOermqP8OMer1aA-16" value="PM" style="swimlane;html=1;startSize=20;horizontal=0;" parent="gftJAqOermqP8OMer1aA-2" vertex="1">
          <mxGeometry x="20" y="285" width="1442" height="74" as="geometry" />
        </mxCell>
        <mxCell id="XIy0NOBV-VJ37zRSxqu9-25" value="&lt;div&gt;&lt;/div&gt;" style="shape=mxgraph.bpmn.data;labelPosition=center;verticalLabelPosition=middle;align=center;verticalAlign=top;size=15;html=1;bpmnTransferType=output;isCollection=1;" vertex="1" parent="gftJAqOermqP8OMer1aA-16">
          <mxGeometry x="1351" y="7" width="40" height="60" as="geometry" />
        </mxCell>
        <mxCell id="gftJAqOermqP8OMer1aA-20" value="Spółka Matka" style="swimlane;html=1;childLayout=stackLayout;resizeParent=1;resizeParentMax=0;horizontal=0;startSize=20;horizontalStack=0;whiteSpace=wrap;" parent="gftJAqOermqP8OMer1aA-1" vertex="1">
          <mxGeometry x="-127" y="556" width="1463" height="426" as="geometry" />
        </mxCell>
        <mxCell id="gftJAqOermqP8OMer1aA-21" value="RPA - robot" style="swimlane;html=1;startSize=20;horizontal=0;" parent="gftJAqOermqP8OMer1aA-20" vertex="1">
          <mxGeometry x="20" width="1443" height="306" as="geometry" />
        </mxCell>
        <mxCell id="UEqsMF7pLybaZUCHouhP-37" style="edgeStyle=orthogonalEdgeStyle;rounded=0;orthogonalLoop=1;jettySize=auto;html=1;entryX=0;entryY=0.7;entryDx=0;entryDy=0;dashed=1;endArrow=none;endFill=0;" edge="1" parent="gftJAqOermqP8OMer1aA-21" source="gftJAqOermqP8OMer1aA-22" target="ZMQNSb4xzaDMj8wwjR6b-5">
          <mxGeometry relative="1" as="geometry">
            <Array as="points">
              <mxPoint x="172" y="257" />
            </Array>
          </mxGeometry>
        </mxCell>
        <mxCell id="gftJAqOermqP8OMer1aA-22" value="zarejestrowanie faktury" style="points=[[0.25,0,0],[0.5,0,0],[0.75,0,0],[1,0.25,0],[1,0.5,0],[1,0.75,0],[0.75,1,0],[0.5,1,0],[0.25,1,0],[0,0.75,0],[0,0.5,0],[0,0.25,0]];shape=mxgraph.bpmn.task;whiteSpace=wrap;rectStyle=rounded;size=10;html=1;container=1;expand=0;collapsible=0;taskMarker=abstract;" parent="gftJAqOermqP8OMer1aA-21" vertex="1">
          <mxGeometry x="112" y="75" width="120" height="80" as="geometry" />
        </mxCell>
        <mxCell id="XIy0NOBV-VJ37zRSxqu9-0" value="" style="points=[[0.25,0.25,0],[0.5,0,0],[0.75,0.25,0],[1,0.5,0],[0.75,0.75,0],[0.5,1,0],[0.25,0.75,0],[0,0.5,0]];shape=mxgraph.bpmn.gateway2;html=1;verticalLabelPosition=bottom;labelBackgroundColor=#ffffff;verticalAlign=top;align=center;perimeter=rhombusPerimeter;outlineConnect=0;outline=end;symbol=general;" vertex="1" parent="gftJAqOermqP8OMer1aA-21">
          <mxGeometry x="277" y="90" width="50" height="50" as="geometry" />
        </mxCell>
        <mxCell id="XIy0NOBV-VJ37zRSxqu9-1" style="edgeStyle=orthogonalEdgeStyle;rounded=0;orthogonalLoop=1;jettySize=auto;html=1;entryX=0;entryY=0.5;entryDx=0;entryDy=0;entryPerimeter=0;" edge="1" parent="gftJAqOermqP8OMer1aA-21" source="gftJAqOermqP8OMer1aA-22" target="XIy0NOBV-VJ37zRSxqu9-0">
          <mxGeometry relative="1" as="geometry" />
        </mxCell>
        <mxCell id="ZMQNSb4xzaDMj8wwjR6b-1" value="weryfikacja poprawności wynagrodzenia bazowego" style="points=[[0.25,0,0],[0.5,0,0],[0.75,0,0],[1,0.25,0],[1,0.5,0],[1,0.75,0],[0.75,1,0],[0.5,1,0],[0.25,1,0],[0,0.75,0],[0,0.5,0],[0,0.25,0]];shape=mxgraph.bpmn.task;whiteSpace=wrap;rectStyle=rounded;size=10;html=1;container=1;expand=0;collapsible=0;taskMarker=abstract;" vertex="1" parent="gftJAqOermqP8OMer1aA-21">
          <mxGeometry x="623" y="75" width="120" height="80" as="geometry" />
        </mxCell>
        <mxCell id="XIy0NOBV-VJ37zRSxqu9-12" style="edgeStyle=orthogonalEdgeStyle;rounded=0;orthogonalLoop=1;jettySize=auto;html=1;entryX=0;entryY=0.5;entryDx=0;entryDy=0;entryPerimeter=0;startArrow=dash;startFill=0;" edge="1" parent="gftJAqOermqP8OMer1aA-21" source="XIy0NOBV-VJ37zRSxqu9-0" target="ZMQNSb4xzaDMj8wwjR6b-1">
          <mxGeometry relative="1" as="geometry" />
        </mxCell>
        <mxCell id="XIy0NOBV-VJ37zRSxqu9-13" style="edgeStyle=orthogonalEdgeStyle;rounded=0;orthogonalLoop=1;jettySize=auto;html=1;entryX=0;entryY=0.5;entryDx=0;entryDy=0;entryPerimeter=0;" edge="1" parent="gftJAqOermqP8OMer1aA-21" source="ZMQNSb4xzaDMj8wwjR6b-1" target="XIy0NOBV-VJ37zRSxqu9-14">
          <mxGeometry relative="1" as="geometry">
            <mxPoint x="857" y="115" as="targetPoint" />
          </mxGeometry>
        </mxCell>
        <mxCell id="XIy0NOBV-VJ37zRSxqu9-14" value="wszystkie &lt;br&gt;składniki &lt;br&gt;poprawne?" style="points=[[0.25,0.25,0],[0.5,0,0],[0.75,0.25,0],[1,0.5,0],[0.75,0.75,0],[0.5,1,0],[0.25,0.75,0],[0,0.5,0]];shape=mxgraph.bpmn.gateway2;html=1;verticalLabelPosition=bottom;labelBackgroundColor=#ffffff;verticalAlign=top;align=center;perimeter=rhombusPerimeter;outlineConnect=0;outline=none;symbol=none;gwType=exclusive;" vertex="1" parent="gftJAqOermqP8OMer1aA-21">
          <mxGeometry x="953" y="90" width="50" height="50" as="geometry" />
        </mxCell>
        <mxCell id="UEqsMF7pLybaZUCHouhP-8" style="edgeStyle=orthogonalEdgeStyle;rounded=0;orthogonalLoop=1;jettySize=auto;html=1;dashed=1;endArrow=none;endFill=0;" edge="1" parent="gftJAqOermqP8OMer1aA-21" source="ZMQNSb4xzaDMj8wwjR6b-2">
          <mxGeometry relative="1" as="geometry">
            <mxPoint x="170" y="48" as="targetPoint" />
          </mxGeometry>
        </mxCell>
        <mxCell id="ZMQNSb4xzaDMj8wwjR6b-2" value="faktura&amp;nbsp;&lt;div&gt;z załącznikami&lt;/div&gt;" style="shape=mxgraph.bpmn.data;labelPosition=center;verticalLabelPosition=bottom;align=center;verticalAlign=top;size=15;html=1;bpmnTransferType=input;" vertex="1" parent="gftJAqOermqP8OMer1aA-21">
          <mxGeometry x="48" y="18" width="40" height="60" as="geometry" />
        </mxCell>
        <mxCell id="UEqsMF7pLybaZUCHouhP-13" value="" style="points=[[0.25,0.25,0],[0.5,0,0],[0.75,0.25,0],[1,0.5,0],[0.75,0.75,0],[0.5,1,0],[0.25,0.75,0],[0,0.5,0]];shape=mxgraph.bpmn.gateway2;html=1;verticalLabelPosition=bottom;labelBackgroundColor=#ffffff;verticalAlign=top;align=center;perimeter=rhombusPerimeter;outlineConnect=0;outline=none;symbol=none;gwType=parallel;" vertex="1" parent="gftJAqOermqP8OMer1aA-21">
          <mxGeometry x="1134" y="90" width="50" height="50" as="geometry" />
        </mxCell>
        <mxCell id="UEqsMF7pLybaZUCHouhP-0" value="TAK" style="edgeStyle=orthogonalEdgeStyle;rounded=0;orthogonalLoop=1;jettySize=auto;html=1;entryX=0;entryY=0.5;entryDx=0;entryDy=0;entryPerimeter=0;startArrow=dash;startFill=0;" edge="1" parent="gftJAqOermqP8OMer1aA-21" source="XIy0NOBV-VJ37zRSxqu9-14" target="UEqsMF7pLybaZUCHouhP-13">
          <mxGeometry relative="1" as="geometry">
            <Array as="points">
              <mxPoint x="1014" y="115" />
              <mxPoint x="1014" y="115" />
            </Array>
          </mxGeometry>
        </mxCell>
        <mxCell id="UEqsMF7pLybaZUCHouhP-38" style="edgeStyle=orthogonalEdgeStyle;rounded=0;orthogonalLoop=1;jettySize=auto;html=1;exitX=1;exitY=0.7;exitDx=0;exitDy=0;dashed=1;endArrow=none;endFill=0;" edge="1" parent="gftJAqOermqP8OMer1aA-21" source="ZMQNSb4xzaDMj8wwjR6b-5">
          <mxGeometry relative="1" as="geometry">
            <mxPoint x="1255.25" y="114" as="targetPoint" />
          </mxGeometry>
        </mxCell>
        <mxCell id="ZMQNSb4xzaDMj8wwjR6b-5" value="BAZA ROZLICZEŃ Z KONTRAHENTAMI" style="shape=datastore;html=1;labelPosition=center;verticalLabelPosition=middle;align=center;verticalAlign=top;" vertex="1" parent="gftJAqOermqP8OMer1aA-21">
          <mxGeometry x="633" y="187" width="100" height="100" as="geometry" />
        </mxCell>
        <mxCell id="XIy0NOBV-VJ37zRSxqu9-9" style="edgeStyle=orthogonalEdgeStyle;rounded=0;orthogonalLoop=1;jettySize=auto;html=1;endArrow=none;endFill=0;dashed=1;" edge="1" parent="gftJAqOermqP8OMer1aA-21" source="ZMQNSb4xzaDMj8wwjR6b-1" target="ZMQNSb4xzaDMj8wwjR6b-5">
          <mxGeometry relative="1" as="geometry" />
        </mxCell>
        <mxCell id="ZMQNSb4xzaDMj8wwjR6b-0" value="Księgowa" style="swimlane;html=1;startSize=20;horizontal=0;" vertex="1" parent="gftJAqOermqP8OMer1aA-20">
          <mxGeometry x="20" y="306" width="1443" height="120" as="geometry" />
        </mxCell>
        <mxCell id="XIy0NOBV-VJ37zRSxqu9-26" value="skierowanie do wypłaty" style="points=[[0.25,0,0],[0.5,0,0],[0.75,0,0],[1,0.25,0],[1,0.5,0],[1,0.75,0],[0.75,1,0],[0.5,1,0],[0.25,1,0],[0,0.75,0],[0,0.5,0],[0,0.25,0]];shape=mxgraph.bpmn.task;whiteSpace=wrap;rectStyle=rounded;size=10;html=1;container=1;expand=0;collapsible=0;taskMarker=abstract;" vertex="1" parent="ZMQNSb4xzaDMj8wwjR6b-0">
          <mxGeometry x="1178" y="20" width="120" height="80" as="geometry" />
        </mxCell>
        <mxCell id="UEqsMF7pLybaZUCHouhP-11" value="" style="points=[[0.145,0.145,0],[0.5,0,0],[0.855,0.145,0],[1,0.5,0],[0.855,0.855,0],[0.5,1,0],[0.145,0.855,0],[0,0.5,0]];shape=mxgraph.bpmn.event;html=1;verticalLabelPosition=bottom;labelBackgroundColor=#ffffff;verticalAlign=top;align=center;perimeter=ellipsePerimeter;outlineConnect=0;aspect=fixed;outline=end;symbol=terminate2;" vertex="1" parent="ZMQNSb4xzaDMj8wwjR6b-0">
          <mxGeometry x="1355" y="35" width="50" height="50" as="geometry" />
        </mxCell>
        <mxCell id="UEqsMF7pLybaZUCHouhP-12" style="edgeStyle=orthogonalEdgeStyle;rounded=0;orthogonalLoop=1;jettySize=auto;html=1;entryX=0;entryY=0.5;entryDx=0;entryDy=0;entryPerimeter=0;" edge="1" parent="ZMQNSb4xzaDMj8wwjR6b-0" source="XIy0NOBV-VJ37zRSxqu9-26" target="UEqsMF7pLybaZUCHouhP-11">
          <mxGeometry relative="1" as="geometry" />
        </mxCell>
        <mxCell id="UEqsMF7pLybaZUCHouhP-14" style="edgeStyle=orthogonalEdgeStyle;rounded=0;orthogonalLoop=1;jettySize=auto;html=1;entryX=0;entryY=0.5;entryDx=0;entryDy=0;entryPerimeter=0;exitX=0.5;exitY=1;exitDx=0;exitDy=0;exitPerimeter=0;" edge="1" parent="gftJAqOermqP8OMer1aA-20" source="UEqsMF7pLybaZUCHouhP-13" target="XIy0NOBV-VJ37zRSxqu9-26">
          <mxGeometry relative="1" as="geometry">
            <mxPoint x="1178.0769230769229" y="243.92307692307713" as="sourcePoint" />
            <Array as="points">
              <mxPoint x="1178" y="366" />
            </Array>
          </mxGeometry>
        </mxCell>
        <mxCell id="gftJAqOermqP8OMer1aA-32" value="Kontraktor" style="swimlane;startSize=20;horizontal=0;html=1;whiteSpace=wrap;fontStyle=0" parent="gftJAqOermqP8OMer1aA-1" vertex="1">
          <mxGeometry x="-127" y="-50" width="1461" height="226.5" as="geometry" />
        </mxCell>
        <mxCell id="UEqsMF7pLybaZUCHouhP-6" style="edgeStyle=orthogonalEdgeStyle;rounded=0;orthogonalLoop=1;jettySize=auto;html=1;" edge="1" parent="gftJAqOermqP8OMer1aA-32" source="gftJAqOermqP8OMer1aA-34" target="UEqsMF7pLybaZUCHouhP-2">
          <mxGeometry relative="1" as="geometry" />
        </mxCell>
        <mxCell id="gftJAqOermqP8OMer1aA-34" value="" style="points=[[0.145,0.145,0],[0.5,0,0],[0.855,0.145,0],[1,0.5,0],[0.855,0.855,0],[0.5,1,0],[0.145,0.855,0],[0,0.5,0]];shape=mxgraph.bpmn.event;html=1;verticalLabelPosition=bottom;labelBackgroundColor=#ffffff;verticalAlign=top;align=center;perimeter=ellipsePerimeter;outlineConnect=0;aspect=fixed;outline=standard;symbol=general;" parent="gftJAqOermqP8OMer1aA-32" vertex="1">
          <mxGeometry x="52" y="122" width="50" height="50" as="geometry" />
        </mxCell>
        <mxCell id="XIy0NOBV-VJ37zRSxqu9-21" value="korekta faktury" style="points=[[0.25,0,0],[0.5,0,0],[0.75,0,0],[1,0.25,0],[1,0.5,0],[1,0.75,0],[0.75,1,0],[0.5,1,0],[0.25,1,0],[0,0.75,0],[0,0.5,0],[0,0.25,0]];shape=mxgraph.bpmn.task;whiteSpace=wrap;rectStyle=rounded;size=10;html=1;container=1;expand=0;collapsible=0;taskMarker=abstract;" vertex="1" parent="gftJAqOermqP8OMer1aA-32">
          <mxGeometry x="938" y="107" width="120" height="80" as="geometry" />
        </mxCell>
        <mxCell id="UEqsMF7pLybaZUCHouhP-2" value="wypełniono formularz zgłoszenia faktury" style="points=[[0.25,0,0],[0.5,0,0],[0.75,0,0],[1,0.25,0],[1,0.5,0],[1,0.75,0],[0.75,1,0],[0.5,1,0],[0.25,1,0],[0,0.75,0],[0,0.5,0],[0,0.25,0]];shape=mxgraph.bpmn.task;whiteSpace=wrap;rectStyle=rounded;size=10;html=1;container=1;expand=0;collapsible=0;taskMarker=abstract;" vertex="1" parent="gftJAqOermqP8OMer1aA-32">
          <mxGeometry x="132" y="107" width="120" height="80" as="geometry" />
        </mxCell>
        <mxCell id="UEqsMF7pLybaZUCHouhP-9" style="edgeStyle=orthogonalEdgeStyle;rounded=0;orthogonalLoop=1;jettySize=auto;html=1;entryX=1;entryY=0.5;entryDx=0;entryDy=0;entryPerimeter=0;" edge="1" parent="gftJAqOermqP8OMer1aA-32" source="XIy0NOBV-VJ37zRSxqu9-21" target="UEqsMF7pLybaZUCHouhP-2">
          <mxGeometry relative="1" as="geometry" />
        </mxCell>
        <mxCell id="UEqsMF7pLybaZUCHouhP-15" value="" style="points=[[0.145,0.145,0],[0.5,0,0],[0.855,0.145,0],[1,0.5,0],[0.855,0.855,0],[0.5,1,0],[0.145,0.855,0],[0,0.5,0]];shape=mxgraph.bpmn.event;html=1;verticalLabelPosition=bottom;labelBackgroundColor=#ffffff;verticalAlign=top;align=center;perimeter=ellipsePerimeter;outlineConnect=0;aspect=fixed;outline=end;symbol=terminate2;" vertex="1" parent="gftJAqOermqP8OMer1aA-32">
          <mxGeometry x="1373" y="122" width="50" height="50" as="geometry" />
        </mxCell>
        <mxCell id="XIy0NOBV-VJ37zRSxqu9-2" style="edgeStyle=orthogonalEdgeStyle;rounded=0;orthogonalLoop=1;jettySize=auto;html=1;entryX=0;entryY=0.5;entryDx=0;entryDy=0;entryPerimeter=0;dashed=1;endArrow=open;endFill=0;" edge="1" parent="gftJAqOermqP8OMer1aA-1" source="XIy0NOBV-VJ37zRSxqu9-0" target="Vd0uFtN5qLyZOQnmuhGz-0">
          <mxGeometry relative="1" as="geometry">
            <Array as="points">
              <mxPoint x="198" y="329" />
            </Array>
          </mxGeometry>
        </mxCell>
        <mxCell id="XIy0NOBV-VJ37zRSxqu9-3" value="Którykolwiek &lt;br&gt;zmienny składnik wynagrodzenia &amp;gt; 0&lt;br&gt;(lista + załączniki)&amp;nbsp;" style="edgeLabel;html=1;align=center;verticalAlign=middle;resizable=0;points=[];" vertex="1" connectable="0" parent="XIy0NOBV-VJ37zRSxqu9-2">
          <mxGeometry x="-0.0884" y="-1" relative="1" as="geometry">
            <mxPoint x="3" y="193" as="offset" />
          </mxGeometry>
        </mxCell>
        <mxCell id="XIy0NOBV-VJ37zRSxqu9-18" style="edgeStyle=orthogonalEdgeStyle;rounded=0;orthogonalLoop=1;jettySize=auto;html=1;entryX=0.25;entryY=0.25;entryDx=0;entryDy=0;entryPerimeter=0;dashed=1;endArrow=open;endFill=0;" edge="1" parent="gftJAqOermqP8OMer1aA-1" target="XIy0NOBV-VJ37zRSxqu9-14">
          <mxGeometry relative="1" as="geometry">
            <mxPoint x="745" y="327" as="sourcePoint" />
            <mxPoint x="858.5" y="759.5000000000002" as="targetPoint" />
            <Array as="points">
              <mxPoint x="748" y="327" />
              <mxPoint x="748" y="635" />
              <mxPoint x="858" y="635" />
            </Array>
          </mxGeometry>
        </mxCell>
        <mxCell id="XIy0NOBV-VJ37zRSxqu9-19" style="edgeStyle=orthogonalEdgeStyle;rounded=0;orthogonalLoop=1;jettySize=auto;html=1;endArrow=open;endFill=0;dashed=1;" edge="1" parent="gftJAqOermqP8OMer1aA-1" source="XIy0NOBV-VJ37zRSxqu9-14" target="XIy0NOBV-VJ37zRSxqu9-21">
          <mxGeometry relative="1" as="geometry">
            <mxPoint x="871" y="139.66666666666674" as="targetPoint" />
          </mxGeometry>
        </mxCell>
        <mxCell id="XIy0NOBV-VJ37zRSxqu9-20" value="&lt;div&gt;NIE&lt;br&gt;(lista ze &lt;br&gt;wskazaniem &lt;br&gt;nieprawidłowości)&lt;/div&gt;" style="edgeLabel;html=1;align=center;verticalAlign=middle;resizable=0;points=[];" vertex="1" connectable="0" parent="XIy0NOBV-VJ37zRSxqu9-19">
          <mxGeometry x="0.1088" y="-4" relative="1" as="geometry">
            <mxPoint x="-4" y="228" as="offset" />
          </mxGeometry>
        </mxCell>
        <mxCell id="UEqsMF7pLybaZUCHouhP-7" style="edgeStyle=orthogonalEdgeStyle;rounded=0;orthogonalLoop=1;jettySize=auto;html=1;dashed=1;endArrow=open;endFill=0;" edge="1" parent="gftJAqOermqP8OMer1aA-1" source="UEqsMF7pLybaZUCHouhP-2" target="gftJAqOermqP8OMer1aA-22">
          <mxGeometry relative="1" as="geometry" />
        </mxCell>
        <mxCell id="UEqsMF7pLybaZUCHouhP-16" style="edgeStyle=orthogonalEdgeStyle;rounded=0;orthogonalLoop=1;jettySize=auto;html=1;entryX=0;entryY=0.5;entryDx=0;entryDy=0;entryPerimeter=0;dashed=1;endArrow=open;endFill=0;exitX=0.5;exitY=0;exitDx=0;exitDy=0;exitPerimeter=0;" edge="1" parent="gftJAqOermqP8OMer1aA-1" source="UEqsMF7pLybaZUCHouhP-13" target="UEqsMF7pLybaZUCHouhP-15">
          <mxGeometry relative="1" as="geometry">
            <mxPoint x="1051.0769230769229" y="750.0769230769229" as="sourcePoint" />
            <Array as="points">
              <mxPoint x="1051" y="97" />
            </Array>
          </mxGeometry>
        </mxCell>
        <mxCell id="UEqsMF7pLybaZUCHouhP-17" value="Informacja o &lt;br&gt;zakończeniu procesu" style="edgeLabel;html=1;align=center;verticalAlign=middle;resizable=0;points=[];" vertex="1" connectable="0" parent="UEqsMF7pLybaZUCHouhP-16">
          <mxGeometry x="-0.0661" y="1" relative="1" as="geometry">
            <mxPoint as="offset" />
          </mxGeometry>
        </mxCell>
        <mxCell id="UEqsMF7pLybaZUCHouhP-18" style="edgeStyle=orthogonalEdgeStyle;rounded=0;orthogonalLoop=1;jettySize=auto;html=1;entryX=0;entryY=0.5;entryDx=0;entryDy=0;entryPerimeter=0;dashed=1;endArrow=open;endFill=0;exitX=1;exitY=0.5;exitDx=0;exitDy=0;exitPerimeter=0;" edge="1" parent="gftJAqOermqP8OMer1aA-1" source="UEqsMF7pLybaZUCHouhP-13" target="XIy0NOBV-VJ37zRSxqu9-25">
          <mxGeometry relative="1" as="geometry">
            <mxPoint x="1075.9230769230771" y="775.0769230769229" as="sourcePoint" />
            <Array as="points">
              <mxPoint x="1151" y="671" />
              <mxPoint x="1151" y="509" />
            </Array>
          </mxGeometry>
        </mxCell>
        <mxCell id="UEqsMF7pLybaZUCHouhP-21" value="&lt;div&gt;&lt;span style=&quot;font-size: 12px;&quot;&gt;raport&amp;nbsp;&lt;/span&gt;&lt;br&gt;&lt;/div&gt;&lt;div&gt;&lt;span style=&quot;font-size: 12px;&quot;&gt;kosztów kontraktorów&amp;nbsp;&lt;/span&gt;&lt;br&gt;&lt;/div&gt;" style="edgeLabel;html=1;align=center;verticalAlign=middle;resizable=0;points=[];" vertex="1" connectable="0" parent="UEqsMF7pLybaZUCHouhP-18">
          <mxGeometry x="0.0963" y="-1" relative="1" as="geometry">
            <mxPoint x="108" y="-115" as="offset" />
          </mxGeometry>
        </mxCell>
      </root>
    </mxGraphModel>
  </diagram>
</mxfile>
